<?xml version="1.0" standalone="no"?>
<!DOCTYPE svg PUBLIC "-//W3C//DTD SVG 20010904//EN"
 "http://www.w3.org/TR/2001/REC-SVG-20010904/DTD/svg10.dtd">
<svg version="1.0" xmlns="http://www.w3.org/2000/svg"
 width="492.000000pt" height="372.000000pt" viewBox="0 0 492.000000 372.000000"
 preserveAspectRatio="xMidYMid meet">

<g transform="translate(0.000000,372.000000) scale(0.100000,-0.100000)"
fill="#000000" stroke="none">
<path d="M1748 2983 c-29 -3 -48 -9 -48 -16 0 -7 7 -91 15 -187 8 -96 15 -177
15 -180 0 -3 32 -3 71 -2 l70 4 -7 101 c-4 56 -8 112 -8 125 -1 12 -5 22 -11
22 -5 0 -3 5 5 10 13 9 13 10 0 10 -13 0 -13 1 0 10 10 6 11 10 3 10 -9 0 -13
17 -13 50 0 46 -2 50 -22 48 -13 -1 -44 -3 -70 -5z"/>
<path d="M2715 2784 c-16 -8 -38 -24 -48 -35 -17 -18 -33 -19 -285 -19 l-267
0 -60 -100 -60 -100 -234 0 -234 0 -38 35 c-33 29 -46 35 -85 35 -76 0 -129
-45 -135 -115 -4 -58 2 -79 35 -110 59 -55 125 -53 197 5 l38 30 205 0 205 0
17 35 c9 19 20 35 25 35 5 0 9 6 9 14 0 8 14 24 31 37 16 13 39 32 51 41 11
10 25 15 29 12 5 -3 9 -1 9 4 0 5 15 13 33 17 17 4 39 10 47 12 16 5 58 5 290
-3 152 -6 155 -6 187 -34 18 -16 51 -34 74 -40 80 -22 159 44 159 132 -1 96
-107 158 -195 112z m86 -65 c52 -27 38 -109 -18 -109 -58 0 -86 73 -41 104 27
19 33 19 59 5z m-1362 -215 c12 -15 21 -33 21 -40 0 -21 -37 -54 -60 -54 -28
0 -60 35 -60 64 0 26 33 56 61 56 10 0 27 -12 38 -26z"/>
<path d="M3201 2349 c-13 -5 -37 -20 -53 -34 l-30 -25 -243 0 -243 0 -5 -32
c-3 -18 -8 -48 -12 -65 l-6 -33 262 0 263 0 32 -31 c84 -81 224 -19 224 100 0
90 -102 155 -189 120z m106 -98 c20 -41 -9 -81 -59 -81 -42 0 -66 68 -36 98
22 22 81 10 95 -17z"/>
<path d="M1166 2170 c-93 -28 -127 -152 -60 -221 56 -58 143 -58 199 1 l29 30
227 0 c262 0 223 15 310 -122 l49 -78 266 0 267 0 38 -35 c33 -29 47 -35 85
-35 105 0 166 84 128 178 -37 93 -158 110 -228 33 -18 -20 -28 -21 -253 -21
l-233 0 -37 61 c-21 34 -50 79 -66 100 l-27 39 -264 0 c-226 0 -265 2 -276 15
-39 47 -103 70 -154 55z m72 -86 c26 -18 29 -60 5 -86 -30 -33 -84 -17 -98 29
-4 17 1 29 19 48 29 29 43 31 74 9z m1384 -201 c37 -33 11 -103 -39 -103 -24
0 -63 32 -63 51 0 15 21 53 34 61 19 13 49 9 68 -9z"/>
<path d="M2070 1706 c0 -9 69 -89 138 -159 88 -90 239 -208 338 -263 85 -47
199 -94 230 -94 24 0 177 65 243 103 90 52 256 183 329 260 l34 35 -105 -1
-106 -2 -68 -52 c-124 -94 -288 -183 -337 -183 -26 0 -191 90 -279 153 -36 26
-104 83 -150 127 l-85 80 -91 0 c-50 0 -91 -2 -91 -4z"/>
</g>
</svg>
